<svg xmlns="http://www.w3.org/2000/svg" xmlns:xlink="http://www.w3.org/1999/xlink" viewBox="0 0 550 470">
	<g fill="#eaaa00" style="mix-blend-mode: normal">
		<g>
			<g data-paper-data="{&quot;textHeightFactor&quot;:0.4773940593296914,&quot;isSecondaryText&quot;:true}">
				<path d="M212.51024,268.20437v-0.48068c0,-1.87466 0.30043,-2.92015 1.5502,-2.92015h0.10815c1.02145,0 1.29784,0.74506 1.29784,2.03088h1.94676v-0.43261c0,-2.34333 -1.1296,-3.28066 -3.35276,-3.28066c-2.43946,0 -3.521,1.35793 -3.521,4.60253v0.48068c0,3.24461 1.08154,4.60253 3.521,4.60253c2.22316,0 3.35276,-0.93733 3.35276,-3.24461v-0.10815h-1.94676c0,1.00943 -0.34849,1.67037 -1.29784,1.67037h-0.10815c-1.24977,0 -1.5502,-1.04548 -1.5502,-2.92015z" data-paper-data="{&quot;glyphName&quot;:&quot;C&quot;,&quot;glyphIndex&quot;:0,&quot;firstGlyphOfWord&quot;:true,&quot;word&quot;:1}">
				</path>
				<path d="M228.15135,272.8069c2.43946,0 3.58108,-1.35793 3.58108,-4.60253v-0.48068c0,-3.24461 -1.14162,-4.60253 -3.58108,-4.60253c-2.42745,0 -3.56907,1.35793 -3.56907,4.60253v0.48068c0,3.24461 1.14162,4.60253 3.56907,4.60253zM228.10328,271.12451c-1.20171,0 -1.5502,-1.04548 -1.5502,-2.92015v-0.48068c0,-1.87466 0.34849,-2.92015 1.5502,-2.92015h0.10815c1.20171,0 1.53818,1.04548 1.53818,2.92015v0.48068c0,1.87466 -0.33648,2.92015 -1.53818,2.92015z" data-paper-data="{&quot;glyphName&quot;:&quot;O&quot;,&quot;glyphIndex&quot;:1,&quot;word&quot;:1}">
				</path>
				<path d="M246.03826,263.27737h-1.85063v3.92958l0.06009,1.88668l-3.01628,-5.81626h-2.05492v9.37331h1.83861v-3.92958l-0.06009,-1.88668l3.0283,5.81626h2.05492z" data-paper-data="{&quot;glyphName&quot;:&quot;N&quot;,&quot;glyphIndex&quot;:2,&quot;word&quot;:1}">
				</path>
				<path d="M257.07922,264.95976h2.17509v-1.68239h-6.28492v1.68239h2.16307v7.69092h1.94676z" data-paper-data="{&quot;glyphName&quot;:&quot;T&quot;,&quot;glyphIndex&quot;:3,&quot;word&quot;:1}">
				</path>
				<path d="M268.0379,269.2859h0.99742l1.28583,3.36478h2.10299l-1.4781,-3.64117c0.84119,-0.34849 1.4781,-1.09355 1.4781,-2.6077v-0.24034c0,-2.48753 -1.73046,-2.88409 -3.25662,-2.88409h-3.07637v9.37331h1.94676zM268.0379,267.60351v-2.64375h1.21372c0.52875,0 1.20171,0.20429 1.20171,1.26179v0.12017c0,1.0575 -0.67296,1.26179 -1.20171,1.26179z" data-paper-data="{&quot;glyphName&quot;:&quot;R&quot;,&quot;glyphIndex&quot;:4,&quot;word&quot;:1}">
				</path>
				<path d="M281.32436,263.25334l-2.34333,9.39734h2.09097l0.44463,-2.01887h2.29526l0.45665,2.01887h2.07895l-2.34333,-9.39734zM282.65826,265.50053l0.76909,3.4489h-1.53818z" data-paper-data="{&quot;glyphName&quot;:&quot;A&quot;,&quot;glyphIndex&quot;:5,&quot;word&quot;:1}">
				</path>
				<path d="M295.94596,264.95976h2.17509v-1.68239h-6.28492v1.68239h2.16307v7.69092h1.94676z" data-paper-data="{&quot;glyphName&quot;:&quot;T&quot;,&quot;glyphIndex&quot;:6,&quot;word&quot;:1}">
				</path>
				<path d="M306.20394,263.27737h-1.94676v9.37331h1.94676z" data-paper-data="{&quot;glyphName&quot;:&quot;I&quot;,&quot;glyphIndex&quot;:7,&quot;word&quot;:1}">
				</path>
				<path d="M315.76301,268.73312c1.35793,0.18026 1.70642,0.55278 1.70642,1.22574v0.06009c0,0.62489 -0.44463,1.10557 -1.34591,1.10557h-0.10815c-0.90128,0 -1.38196,-0.4927 -1.38196,-1.67037h-1.94676v0.10815c0,2.25921 1.16566,3.24461 3.37679,3.24461c2.19912,0 3.38881,-1.04548 3.38881,-2.84804v-0.12017c0,-1.74247 -1.03347,-2.43946 -3.07637,-2.71586c-1.36995,-0.18026 -1.64634,-0.54077 -1.64634,-1.22574v-0.06009c0,-0.60085 0.45665,-1.03347 1.23776,-1.03347h0.10815c0.9854,0 1.35793,0.5648 1.35793,1.79054h1.94676v-0.25236c0,-2.19912 -1.00943,-3.22057 -3.31671,-3.22057c-2.13904,0 -3.30469,1.09355 -3.30469,2.78796v0.13219c0,1.69441 0.96136,2.41543 3.00427,2.69182z" data-paper-data="{&quot;glyphName&quot;:&quot;S&quot;,&quot;glyphIndex&quot;:8,&quot;word&quot;:1}">
				</path>
				<path d="M330.11739,264.95976h2.17509v-1.68239h-6.28492v1.68239h2.16307v7.69092h1.94676z" data-paper-data="{&quot;glyphName&quot;:&quot;T&quot;,&quot;glyphIndex&quot;:9,&quot;word&quot;:1}">
				</path>
				<path d="M340.12444,263.25334l-2.34333,9.39734h2.09097l0.44463,-2.01887h2.29526l0.45665,2.01887h2.07895l-2.34333,-9.39734zM341.45833,265.50053l0.76909,3.4489h-1.53818z" data-paper-data="{&quot;glyphName&quot;:&quot;A&quot;,&quot;glyphIndex&quot;:10,&quot;word&quot;:1}">
				</path>
				<path d="M354.72757,268.73312c1.35793,0.18026 1.70642,0.55278 1.70642,1.22574v0.06009c0,0.62489 -0.44463,1.10557 -1.34591,1.10557h-0.10815c-0.90128,0 -1.38196,-0.4927 -1.38196,-1.67037h-1.94676v0.10815c0,2.25921 1.16566,3.24461 3.37679,3.24461c2.19912,0 3.38881,-1.04548 3.38881,-2.84804v-0.12017c0,-1.74247 -1.03347,-2.43946 -3.07637,-2.71586c-1.36995,-0.18026 -1.64634,-0.54077 -1.64634,-1.22574v-0.06009c0,-0.60085 0.45665,-1.03347 1.23776,-1.03347h0.10815c0.9854,0 1.35793,0.5648 1.35793,1.79054h1.94676v-0.25236c0,-2.19912 -1.00943,-3.22057 -3.31671,-3.22057c-2.13904,0 -3.30469,1.09355 -3.30469,2.78796v0.13219c0,1.69441 0.96136,2.41543 3.00427,2.69182z" data-paper-data="{&quot;glyphName&quot;:&quot;S&quot;,&quot;glyphIndex&quot;:11,&quot;lastGlyphOfWord&quot;:true,&quot;word&quot;:1}">
				</path>
				<path d="M375.82976,272.8069c1.63432,0 2.58367,-0.51673 3.28066,-1.09355v-4.13387h-3.18452v1.68239h1.23776v1.50213c-0.28841,0.20429 -0.72102,0.36051 -1.27381,0.36051h-0.10815c-1.36995,0 -1.68239,-1.04548 -1.68239,-2.92015v-0.48068c0,-1.87466 0.32446,-2.92015 1.61029,-2.92015h0.10815c1.08154,0 1.35793,0.74506 1.35793,2.03088h1.94676v-0.43261c0,-2.34333 -1.17767,-3.28066 -3.41285,-3.28066c-2.42745,0 -3.5931,1.35793 -3.5931,4.60253v0.48068c0,3.24461 1.16566,4.60253 3.71327,4.60253z" data-paper-data="{&quot;glyphName&quot;:&quot;G&quot;,&quot;glyphIndex&quot;:12,&quot;firstGlyphOfWord&quot;:true,&quot;word&quot;:2}">
				</path>
				<path d="M386.535,263.27737v9.37331h5.73214v-1.68239h-3.78537v-2.25921h3.18452v-1.68239h-3.18452v-2.06693h3.78537v-1.68239z" data-paper-data="{&quot;glyphName&quot;:&quot;E&quot;,&quot;glyphIndex&quot;:13,&quot;word&quot;:2}">
				</path>
				<path d="M406.3364,263.27737h-1.85063v3.92958l0.06009,1.88668l-3.01628,-5.81626h-2.05492v9.37331h1.83861v-3.92958l-0.06009,-1.88668l3.0283,5.81626h2.05492z" data-paper-data="{&quot;glyphName&quot;:&quot;N&quot;,&quot;glyphIndex&quot;:14,&quot;word&quot;:2}">
				</path>
				<path d="M413.80476,263.27737v9.37331h5.73214v-1.68239h-3.78537v-2.25921h3.18452v-1.68239h-3.18452v-2.06693h3.78537v-1.68239z" data-paper-data="{&quot;glyphName&quot;:&quot;E&quot;,&quot;glyphIndex&quot;:15,&quot;word&quot;:2}">
				</path>
				<path d="M428.59688,269.2859h0.99742l1.28583,3.36478h2.10299l-1.4781,-3.64117c0.84119,-0.34849 1.4781,-1.09355 1.4781,-2.6077v-0.24034c0,-2.48753 -1.73046,-2.88409 -3.25662,-2.88409h-3.07637v9.37331h1.94676zM428.59688,267.60351v-2.64375h1.21372c0.52875,0 1.20171,0.20429 1.20171,1.26179v0.12017c0,1.0575 -0.67296,1.26179 -1.20171,1.26179z" data-paper-data="{&quot;glyphName&quot;:&quot;R&quot;,&quot;glyphIndex&quot;:16,&quot;word&quot;:2}">
				</path>
				<path d="M441.88335,263.25334l-2.34333,9.39734h2.09097l0.44463,-2.01887h2.29526l0.45665,2.01887h2.07895l-2.34333,-9.39734zM443.21724,265.50053l0.76909,3.4489h-1.53818z" data-paper-data="{&quot;glyphName&quot;:&quot;A&quot;,&quot;glyphIndex&quot;:17,&quot;word&quot;:2}">
				</path>
				<path d="M459.12993,272.65068v-1.68239h-3.46091v-7.69092h-1.94676v9.37331z" data-paper-data="{&quot;glyphName&quot;:&quot;L&quot;,&quot;glyphIndex&quot;:18,&quot;word&quot;:2}">
				</path>
				<path d="M465.67056,263.27737v9.37331h5.73214v-1.68239h-3.78537v-2.25921h3.18452v-1.68239h-3.18452v-2.06693h3.78537v-1.68239z" data-paper-data="{&quot;glyphName&quot;:&quot;E&quot;,&quot;glyphIndex&quot;:19,&quot;word&quot;:2}">
				</path>
				<path d="M481.31076,268.73312c1.35793,0.18026 1.70642,0.55278 1.70642,1.22574v0.06009c0,0.62489 -0.44463,1.10557 -1.34591,1.10557h-0.10815c-0.90128,0 -1.38196,-0.4927 -1.38196,-1.67037h-1.94676v0.10815c0,2.25921 1.16566,3.24461 3.37679,3.24461c2.19912,0 3.38881,-1.04548 3.38881,-2.84804v-0.12017c0,-1.74247 -1.03347,-2.43946 -3.07637,-2.71586c-1.36995,-0.18026 -1.64634,-0.54077 -1.64634,-1.22574v-0.06009c0,-0.60085 0.45665,-1.03347 1.23776,-1.03347h0.10815c0.9854,0 1.35793,0.5648 1.35793,1.79054h1.94676v-0.25236c0,-2.19912 -1.00943,-3.22057 -3.31671,-3.22057c-2.13904,0 -3.30469,1.09355 -3.30469,2.78796v0.13219c0,1.69441 0.96136,2.41543 3.00427,2.69182z" data-paper-data="{&quot;glyphName&quot;:&quot;S&quot;,&quot;glyphIndex&quot;:20,&quot;lastGlyphOfWord&quot;:true,&quot;word&quot;:2}">
				</path>
				<path d="M196.43694,253.85921v-1.3411h288.56306v1.3411z" data-paper-data="{&quot;isContainerTopLineAboveSecondaryText&quot;:true}">
				</path>
			</g>
			<g data-paper-data="{&quot;isPrimaryText&quot;:true}">
				<path d="M216.80766,220.80461v0.66139h13.69071v20.37071c-3.17466,1.52119 -6.74615,2.38099 -10.2515,2.38099c-9.59011,0 -14.81506,-10.38377 -14.81506,-23.21468c0,-12.8309 5.75407,-23.21468 14.81506,-23.21468c6.68001,0 12.76477,2.9101 16.99764,7.53981h0.8598c-4.36515,-5.02654 -10.71447,-8.13506 -17.85744,-8.13506c-13.1616,0 -23.80992,10.64833 -23.80992,23.80992c0,13.1616 10.64833,23.80992 23.80992,23.80992c7.8705,0 14.8812,-3.83604 19.18022,-9.72239v-14.28595z" data-paper-data="{&quot;glyphName&quot;:&quot;G&quot;,&quot;glyphIndex&quot;:0,&quot;firstGlyphOfWord&quot;:true,&quot;word&quot;:1}">
				</path>
				<path d="M262.17879,210.8838v0c-2.9101,0 -5.48951,1.38891 -7.14298,3.43921v-3.37307h-8.99486v34.12756h8.99486v-29.63013c1.52119,-2.38099 4.16674,-3.90218 7.14298,-3.90218v0c3.04238,0 5.75407,1.58733 7.27525,4.03446c-0.72753,-0.52911 -1.65347,-0.8598 -2.64555,-0.8598c-2.44713,0 -4.49743,1.98416 -4.49743,4.49743c0,2.44713 2.0503,4.43129 4.49743,4.43129c2.44713,0 4.49743,-1.98416 4.49743,-4.43129c0,-0.19842 0,-0.33069 -0.06614,-0.46297h0.06614c-0.66139,-4.43129 -4.49743,-7.8705 -9.12714,-7.8705z" data-paper-data="{&quot;glyphName&quot;:&quot;r&quot;,&quot;glyphIndex&quot;:1,&quot;word&quot;:1}">
				</path>
				<path d="M302.12655,241.3076c-0.46297,0 -0.8598,-0.26455 -0.8598,-1.91802v0v-28.43963c0,0 -6.34931,0 -8.99486,0v28.77033c-0.46297,0.92594 -1.05822,1.98416 -1.91802,2.97624c-2.44713,2.71169 -5.15882,-1.1905 -5.22496,-7.73823v-23.67765c0,-0.19842 -0.13228,-0.33069 -0.33069,-0.33069h-8.33347c-0.19842,0 -0.33069,0.13228 -0.33069,0.33069v23.67765v0c0,5.02654 3.90218,10.64833 10.58219,10.11922c2.77782,-0.26455 4.82812,-2.64555 5.75407,-4.29901c0.59525,2.44713 2.84396,4.29901 5.48951,4.29901v0c3.10852,0 5.68793,-2.51327 5.68793,-5.68793h-0.66139c-0.06614,1.1905 -0.39683,1.91802 -0.8598,1.91802z" data-paper-data="{&quot;glyphName&quot;:&quot;u&quot;,&quot;glyphIndex&quot;:2,&quot;word&quot;:1}">
				</path>
				<path d="M317.07389,259.89257v-19.44477c2.57941,2.84396 6.01862,4.62971 9.78852,4.62971c7.93664,0 14.35209,-7.67209 14.35209,-17.06378c0,-9.45783 -6.41545,-17.12992 -14.35209,-17.12992c-3.7699,0 -7.20912,1.78574 -9.78852,4.69585v-4.69585h-8.92872v49.00876zM323.29093,212.66955c4.9604,0 8.99486,6.87842 8.99486,15.34417c0,8.46575 -4.03446,15.34417 -8.99486,15.34417c-2.18258,0 -4.43129,-1.52119 -6.21704,-3.90218v-22.81784c1.78574,-2.38099 4.03446,-3.96832 6.21704,-3.96832z" data-paper-data="{&quot;glyphName&quot;:&quot;p&quot;,&quot;glyphIndex&quot;:3,&quot;word&quot;:1}">
				</path>
				<path d="M361.45295,210.94994c-9.39169,0 -17.06378,7.60595 -17.06378,17.06378c0,9.39169 7.67209,17.06378 17.06378,17.06378c9.45783,0 17.06378,-7.67209 17.06378,-17.06378c0,-9.45783 -7.60595,-17.06378 -17.06378,-17.06378zM361.45295,244.41612c-6.54773,0 -8.2012,-7.34139 -8.2012,-16.40239c0,-9.061 1.85188,-16.40239 8.2012,-16.40239c6.28317,0 8.2012,7.34139 8.2012,16.40239c0,9.061 -1.38891,16.40239 -8.2012,16.40239z" data-paper-data="{&quot;glyphName&quot;:&quot;o&quot;,&quot;glyphIndex&quot;:4,&quot;lastGlyphOfWord&quot;:true,&quot;word&quot;:1}">
				</path>
				<path d="M443.26649,197.1931v0l-15.47645,46.62777l-8.33347,-28.10894l-0.33069,-0.99208l-5.22496,-17.52675h-8.73031h-0.59525v47.95054h0.59525v-45.96638l9.061,30.42379l0.26455,0.99208l4.29901,14.55051h9.19328l0.13228,-0.33069l15.14576,-45.70183v46.03252h8.99486v-47.95054h-8.33347z" data-paper-data="{&quot;glyphName&quot;:&quot;M&quot;,&quot;glyphIndex&quot;:5,&quot;firstGlyphOfWord&quot;:true,&quot;word&quot;:2}">
				</path>
				<path d="M474.41781,210.94994c-2.51327,0 -4.76198,0.8598 -6.54773,2.31485v-16.0717h-8.99486v47.8844h8.99486v-31.08518c0.59525,-0.52911 1.25663,-0.99208 2.0503,-1.38891c6.08476,-2.9101 6.08476,6.54773 6.08476,8.46575v24.00834h8.99486v-24.00834h-0.06614c-0.19842,-5.62179 -4.82812,-10.11922 -10.51605,-10.11922z" data-paper-data="{&quot;glyphName&quot;:&quot;h&quot;,&quot;glyphIndex&quot;:6,&quot;lastGlyphOfWord&quot;:true,&quot;word&quot;:2}">
				</path>
			</g>
			<g>
				<path d="M65.81634,237.09188l31.73535,31.83739c2.65311,2.44903 5.91849,3.87763 9.48999,3.87763c3.5715,0 6.93892,-1.63269 9.48999,-3.97968l29.69449,-30.51084c0.51021,-0.61226 1.02043,-1.73473 0.81634,-2.44903c0,-1.63269 -1.32656,-2.95924 -2.8572,-2.95924h-40.20492c-1.73473,0 -2.95924,1.4286 -2.95924,2.95924c0,1.73473 1.22452,3.06129 2.95924,3.06129h33.36804l-25.00051,25.71482c-1.4286,1.32656 -3.36742,2.24494 -5.30623,2.24494c-1.83677,0 -3.87763,-0.81634 -5.30623,-2.24494l-29.59245,-29.59245l29.59245,-29.69449c1.4286,-1.4286 3.46946,-2.1429 5.30623,-2.1429c2.04086,0 3.87763,0.7143 5.30623,2.1429l20.10246,20.10246c1.12247,1.22452 2.95924,1.32656 4.18376,0.20409c1.22452,-1.32656 1.12247,-3.16333 0,-4.38784l-20.10246,-20.2045c-2.55107,-2.44903 -5.81645,-3.87763 -9.48999,-3.87763c-3.5715,0 -6.83688,1.4286 -9.48999,3.87763l-31.73535,31.83739c-0.51021,0.61226 -0.81634,1.4286 -0.81634,2.1429c0,0.7143 0.30613,1.4286 0.81634,2.04086z" data-paper-data="{&quot;isPathIcon&quot;:true}">
				</path>
			</g>
			<path d="M166.82792,272.8069v-75.6138h2.06116v75.6138z" data-paper-data="{&quot;isShapeTextSeparator&quot;:true}">
			</path>
		</g>
	</g>
</svg>
